<svg width="57" height="57" viewBox="0 0 57 57" fill="none" xmlns="http://www.w3.org/2000/svg">
<rect width="57" height="57" rx="28.5" fill="url(#paint0_linear_16_1135)" fill-opacity="0.7"/>
<path d="M32.5 12C32.5 13.933 30.933 15.5 29 15.5C27.067 15.5 25.5 13.933 25.5 12C25.5 10.067 27.067 8.5 29 8.5C30.933 8.5 32.5 10.067 32.5 12Z" stroke="white" stroke-width="4"/>
<path d="M29 31.2495L30.1396 30.5983C29.906 30.1895 29.4709 29.937 29 29.937C28.5291 29.937 28.094 30.1895 27.8604 30.5983L29 31.2495ZM26.1045 21.3136C26.8253 21.3898 27.4714 20.8671 27.5475 20.1462C27.6236 19.4254 27.1011 18.7793 26.3803 18.7031L26.1045 21.3136ZM31.6198 18.7031C30.8989 18.7793 30.3764 19.4254 30.4525 20.1462C30.5286 20.8671 31.1747 21.3898 31.8956 21.3136L31.6198 18.7031ZM18.1686 25.2309L21.9754 26.4998L22.8055 24.0095L18.9987 22.7406L18.1686 25.2309ZM22.5544 27.7269L20.3725 33.3997L22.8226 34.3421L25.0045 28.6691L22.5544 27.7269ZM39.0013 22.7406L35.1945 24.0095L36.0247 26.4998L39.8315 25.2309L39.0013 22.7406ZM32.9956 28.6691L35.1775 34.3421L37.6275 33.3997L35.4456 27.7269L32.9956 28.6691ZM27.382 36.7266L30.1396 31.9006L27.8604 30.5983L25.1027 35.4243L27.382 36.7266ZM37.7315 17.5362L34.4107 18.2478L34.9607 20.8145L38.2815 20.103L37.7315 17.5362ZM23.5893 18.2478L20.2686 17.5362L19.7185 20.103L23.0393 20.8145L23.5893 18.2478ZM27.8604 31.9006L30.6181 36.7266L32.8973 35.4243L30.1396 30.5983L27.8604 31.9006ZM34.4107 18.2478C34.2243 18.2877 34.1373 18.3064 34.0514 18.3242L34.583 20.8948C34.6802 20.8746 34.7778 20.8537 34.9607 20.8145L34.4107 18.2478ZM23.0393 20.8145C23.2222 20.8537 23.3198 20.8746 23.417 20.8948L23.9487 18.3242C23.8628 18.3064 23.7757 18.2877 23.5893 18.2478L23.0393 20.8145ZM24.0039 38.687C25.4 38.687 26.6891 37.9388 27.382 36.7266L25.1027 35.4243C24.8774 35.8187 24.458 36.062 24.0039 36.062V38.687ZM35.1775 34.3421C35.4964 35.171 34.8844 36.062 33.9961 36.062V38.687C36.7266 38.687 38.6077 35.948 37.6275 33.3997L35.1775 34.3421ZM35.1945 24.0095C34.8062 24.139 34.3928 24.2675 34.0572 24.4745L35.436 26.7084C35.4204 26.7178 35.4335 26.7065 35.5349 26.6681C35.6413 26.6279 35.7847 26.5798 36.0247 26.4998L35.1945 24.0095ZM35.4456 27.7269C35.3548 27.4908 35.3007 27.3494 35.2641 27.2416C35.2293 27.1392 35.2298 27.1219 35.2323 27.1399L32.6314 27.4955C32.685 27.8863 32.8486 28.2871 32.9956 28.6691L35.4456 27.7269ZM34.0572 24.4745C33.0262 25.111 32.4675 26.2952 32.6314 27.4955L35.2323 27.1399C35.2088 26.9684 35.2886 26.7992 35.436 26.7084L34.0572 24.4745ZM39.9375 21.4417C39.9375 22.031 39.5604 22.5542 39.0013 22.7406L39.8315 25.2309C41.4625 24.6873 42.5625 23.161 42.5625 21.4417H39.9375ZM20.3725 33.3997C19.3924 35.948 21.2735 38.687 24.0039 38.687V36.062C23.1156 36.062 22.5037 35.171 22.8226 34.3421L20.3725 33.3997ZM21.9754 26.4998C22.2153 26.5798 22.3588 26.6279 22.4652 26.6681C22.5665 26.7065 22.5795 26.7178 22.564 26.7084L23.9429 24.4745C23.6072 24.2675 23.1938 24.139 22.8055 24.0095L21.9754 26.4998ZM25.0045 28.6691C25.1514 28.2871 25.3151 27.8863 25.3685 27.4955L22.7677 27.1399C22.7702 27.1219 22.7707 27.1391 22.7359 27.2416C22.6993 27.3494 22.6452 27.4908 22.5544 27.7269L25.0045 28.6691ZM22.564 26.7084C22.7113 26.7992 22.7911 26.9684 22.7677 27.1399L25.3685 27.4955C25.5326 26.2952 24.9738 25.111 23.9429 24.4745L22.564 26.7084ZM15.4375 21.4417C15.4375 23.161 16.5376 24.6873 18.1686 25.2309L18.9987 22.7406C18.4396 22.5542 18.0625 22.031 18.0625 21.4417H15.4375ZM18.0625 21.4417C18.0625 20.57 18.8662 19.9203 19.7185 20.103L20.2686 17.5362C17.7821 17.0034 15.4375 18.8988 15.4375 21.4417H18.0625ZM30.6181 36.7266C31.3109 37.9388 32.5999 38.687 33.9961 38.687V36.062C33.542 36.062 33.1227 35.8187 32.8973 35.4243L30.6181 36.7266ZM42.5625 21.4417C42.5625 18.8988 40.2179 17.0034 37.7315 17.5362L38.2815 20.103C39.1337 19.9203 39.9375 20.57 39.9375 21.4417H42.5625ZM26.3803 18.7031C25.5655 18.6171 24.754 18.4907 23.9487 18.3242L23.417 20.8948C24.307 21.0789 25.204 21.2185 26.1045 21.3136L26.3803 18.7031ZM34.0514 18.3242C33.246 18.4907 32.4346 18.6171 31.6198 18.7031L31.8956 21.3136C32.7961 21.2185 33.693 21.0789 34.583 20.8948L34.0514 18.3242Z" fill="white"/>
<path d="M42.044 31.25C44.8151 32.6432 46.5 34.4831 46.5 36.5C46.5 37.8097 45.7895 39.0447 44.5326 40.1311M15.956 31.25C13.185 32.6432 11.5 34.4831 11.5 36.5C11.5 40.8493 19.335 44.375 29 44.375C32.1875 44.375 35.1759 43.9916 37.75 43.3215" stroke="white" stroke-width="4" stroke-linecap="round"/>
<defs>
<linearGradient id="paint0_linear_16_1135" x1="0" y1="28.5" x2="57" y2="28.5" gradientUnits="userSpaceOnUse">
<stop offset="0.0528846" stop-color="#20DDB5" stop-opacity="0.5"/>
<stop offset="0.615385" stop-color="#149D80" stop-opacity="0.5"/>
</linearGradient>
</defs>
</svg>
